<?xml version="1.0" encoding="UTF-8" standalone="no"?>
<!-- Created with Inkscape (http://www.inkscape.org/) -->

<svg
   xmlns:dc="http://purl.org/dc/elements/1.1/"
   xmlns:cc="http://creativecommons.org/ns#"
   xmlns:rdf="http://www.w3.org/1999/02/22-rdf-syntax-ns#"
   xmlns:svg="http://www.w3.org/2000/svg"
   xmlns="http://www.w3.org/2000/svg"
   xmlns:sodipodi="http://sodipodi.sourceforge.net/DTD/sodipodi-0.dtd"
   xmlns:inkscape="http://www.inkscape.org/namespaces/inkscape"
   id="svg2"
   version="1.1"
   inkscape:version="0.92.3 (2405546, 2018-03-11)"
   xml:space="preserve"
   width="600"
   height="600"
   viewBox="0 0 600 600"
   sodipodi:docname="element-logo.svg"><metadata
     id="metadata8"><rdf:RDF><cc:Work
         rdf:about=""><dc:format>image/svg+xml</dc:format><dc:type
           rdf:resource="http://purl.org/dc/dcmitype/StillImage" /><dc:title></dc:title></cc:Work></rdf:RDF></metadata><defs
     id="defs6"><clipPath
       clipPathUnits="userSpaceOnUse"
       id="clipPath18"><path
         d="M 0,0 H 800 V 800 H 0 Z"
         id="path20"
         inkscape:connector-curvature="0" /></clipPath><clipPath
       clipPathUnits="userSpaceOnUse"
       id="clipPath30"><path
         d="M 0,800 H 800 V 0 H 0 Z"
         id="path32"
         inkscape:connector-curvature="0" /></clipPath></defs><sodipodi:namedview
     pagecolor="#ffffff"
     bordercolor="#666666"
     borderopacity="1"
     objecttolerance="10"
     gridtolerance="10"
     guidetolerance="10"
     inkscape:pageopacity="0"
     inkscape:pageshadow="2"
     inkscape:window-width="1366"
     inkscape:window-height="719"
     id="namedview4"
     showgrid="false"
     inkscape:zoom="0.236"
     inkscape:cx="228.13181"
     inkscape:cy="-33.859088"
     inkscape:window-x="0"
     inkscape:window-y="25"
     inkscape:window-maximized="1"
     inkscape:current-layer="svg2"
     fit-margin-top="0"
     fit-margin-left="0"
     fit-margin-right="0"
     fit-margin-bottom="0" /><rect
     style="color:#000000;clip-rule:nonzero;display:inline;overflow:visible;visibility:visible;opacity:1;isolation:auto;mix-blend-mode:normal;color-interpolation:sRGB;color-interpolation-filters:linearRGB;solid-color:#000000;solid-opacity:1;fill:none;fill-opacity:1;fill-rule:nonzero;stroke:none;stroke-width:1.19989657px;stroke-linecap:butt;stroke-linejoin:miter;stroke-miterlimit:4;stroke-dasharray:none;stroke-dashoffset:0;stroke-opacity:1;color-rendering:auto;image-rendering:auto;shape-rendering:auto;text-rendering:auto;enable-background:accumulate"
     id="rect833"
     width="600"
     height="600"
     x="0"
     y="-600"
     transform="scale(1,-1)"
     inkscape:export-filename="/home/dtygel/eita/Serviços/Rios/ID Visual Rios/6-Rios-Chat-Web-Icons/mstile-310x150.png"
     inkscape:export-xdpi="24"
     inkscape:export-ydpi="24" /><g
     id="g10"
     inkscape:groupmode="layer"
     inkscape:label="1712CE_Icones-Store"
     transform="matrix(1.25,0,0,-1.25,-197.71565,794.87604)"><path
       d="M 0,0 H 800 V 800 H 0 Z"
       style="display:none;fill:#3c3c3c;fill-opacity:1;fill-rule:nonzero;stroke:none"
       id="path12"
       inkscape:connector-curvature="0" /><g
       id="g14"
       transform="matrix(-0.48273996,0,0,0.48273996,638.17251,249.70881)"><g
         id="g16"
         clip-path="url(#clipPath18)"><g
           id="g22"
           transform="translate(0,537.7041)"><path
             d="m 0,0 c 13.384,29.022 30.287,50.225 50.769,63.619 20.461,13.394 42.585,25.672 66.426,36.831 23.803,11.16 45.946,20.482 66.408,27.905 20.461,7.454 37.562,19.365 51.341,35.725 13.76,16.369 20.64,36.831 20.64,61.385 v 36.831 H 0 Z"
             style="fill:#00ff9d;fill-opacity:1;fill-rule:nonzero;stroke:none"
             id="path24"
             inkscape:connector-curvature="0" /></g></g></g><g
       id="g26"><g
         id="g28"
         clip-path="url(#clipPath30)"><g
           id="g34"
           transform="translate(489.7363,278.4604)"><path
             d="m 0,0 c -9.116,0 -18.973,1.871 -26.365,5.004 l 8.299,19.579 C -13.311,22.566 -6.22,21.264 0,21.264 c 23.355,0 42.357,19.001 42.357,42.357 V 89.656 H 63.621 V 63.621 C 63.621,28.54 35.081,0 0,0"
             style="fill:#00ff9d;fill-opacity:1;fill-rule:nonzero;stroke:none"
             id="path36"
             inkscape:connector-curvature="0" /></g><g
           id="g38"
           transform="translate(560.2773,337.9888)"><path
             d="M 0,0 -17.552,17.544 -35.104,0 -50.137,15.04 -17.552,47.608 15.033,15.04 Z"
             style="fill:#00ff9d;fill-opacity:1;fill-rule:nonzero;stroke:none"
             id="path40"
             inkscape:connector-curvature="0" /></g><g
           id="g42"
           transform="translate(440.5488,322.8882)"><path
             d="m 0,0 h -21.264 v 26.023 c 0,35.081 28.54,63.621 63.621,63.621 9.116,0 18.972,-1.871 26.367,-5.005 L 60.425,65.061 C 55.668,67.077 48.576,68.38 42.357,68.38 19.002,68.38 0,49.379 0,26.023 Z"
             style="fill:#00ff9d;fill-opacity:1;fill-rule:nonzero;stroke:none"
             id="path44"
             inkscape:connector-curvature="0" /></g><g
           id="g46"
           transform="translate(429.917,305.3955)"><path
             d="M 0,0 -32.585,32.568 -17.552,47.608 0,30.064 17.554,47.608 32.585,32.568 Z"
             style="fill:#00ff9d;fill-opacity:1;fill-rule:nonzero;stroke:none"
             id="path48"
             inkscape:connector-curvature="0" /></g><g
           id="g50"
           transform="translate(499.8369,481.2759)"><path
             d="m 0,0 z m -267.216,-64.704 z m 181.304,-182.534 h -142.63 c -53.172,0 -96.431,42.779 -96.431,95.362 0,37.906 22.669,72.137 57.778,87.294 10e-4,0.018 0,0.038 -0.002,0.059 -0.381,3.91 -0.567,7.669 -0.567,11.491 0,75.938 62.5,137.718 139.323,137.718 56.338,0 106.768,-33.245 128.529,-84.709 0.025,-0.003 0.056,-0.006 0.092,-0.006 69.028,0 125.119,-55.448 125.119,-123.604 h -21.264 c 0,56.431 -46.552,102.341 -103.771,102.341 -0.008,0 -0.018,-10e-4 -0.026,-10e-4 -8.691,0 -16.386,5.038 -19.673,12.84 -18.39,43.662 -61.178,71.875 -109.006,71.875 -65.098,0 -118.059,-52.241 -118.059,-116.454 0,-3.126 0.152,-6.21 0.467,-9.429 0.905,-9.299 -4.124,-17.958 -12.514,-21.549 -27.434,-11.741 -45.162,-38.38 -45.162,-67.866 0,-40.858 33.72,-74.098 75.167,-74.098 h 142.63 z"
             style="fill:#ff6600;fill-opacity:1;fill-rule:nonzero;stroke:none"
             id="path52"
             inkscape:connector-curvature="0" /></g></g></g></g></svg>